<?xml version="1.0" encoding="UTF-8"?>
<svg width="300" height="159" version="1.1" viewBox="0 0 300 158.95" xmlns="http://www.w3.org/2000/svg">
 <path d="m150.71 44.825c0 8.177-6.6589 14.836-14.836 14.836s-14.836-6.6589-14.836-14.836c0-8.177 6.6589-14.836 14.836-14.836s14.836 6.6589 14.836 14.836zm-71.891-14.836c-8.177 0-14.836 6.6589-14.836 14.836 0 8.177 6.6589 14.836 14.836 14.836s14.836-6.6589 14.836-14.836c0-8.177-6.6589-14.836-14.836-14.836zm-57.055 14.836c0 8.177-6.6589 14.836-14.836 14.836s-14.836-6.6589-14.836-14.836c0-8.177 6.6589-14.836 14.836-14.836s14.836 6.6589 14.836 14.836zm229.1-14.836c-8.177 0-14.836 6.6589-14.836 14.836 0 8.177 6.6589 14.836 14.836 14.836s14.836-6.6589 14.836-14.836c0-8.177-6.6589-14.836-14.836-14.836zm-57.055 14.836c0 8.177-6.6589 14.836-14.836 14.836s-14.836-6.6589-14.836-14.836c0-8.177 6.6589-14.836 14.836-14.836s14.836 6.6589 14.836 14.836zm-49.346 35.606 7.4182-2.9673c1.5127 3.0258 3.4018 5.8873 5.7118 8.4273l-4.4509 6.7164c-3.7436-3.5187-6.8918-7.6521-8.6791-12.176zm-23.345-1.1273-4.4509-6.7164c3.4018-2.54 6.1796-5.8873 8.1127-9.6132l7.4182 2.9673c-2.54 5.0437-6.4718 9.7886-11.08 13.362zm-47.859 1.1273 7.4182-2.9673c1.5127 3.0258 3.4018 5.8873 5.7118 8.4273l-4.4509 6.7164c-3.7436-3.5187-6.8918-7.6521-8.6791-12.176zm-23.345-1.1273-4.4509-6.7164c3.4018-2.54 6.1796-5.8873 8.1127-9.6132l7.4182 2.9673c-2.54 5.0437-6.4718 9.7886-11.08 13.362zm-47.859 1.1273 7.4182-2.9673c1.5127 3.0258 3.4018 5.8873 5.7118 8.4273l-4.4509 6.7164c-3.7436-3.5187-6.8918-7.6521-8.6791-12.176zm-23.345-1.1273-4.4509-6.7164c3.4018-2.54 6.1796-5.8873 8.1127-9.6132l7.4182 2.9673c-2.54 5.0437-6.4718 9.7886-11.08 13.362zm238.57 1.1273 7.4182-2.9673c1.5127 3.0258 3.4018 5.8873 5.7118 8.4273l-4.4509 6.7164c-3.7436-3.5187-6.8918-7.6521-8.6791-12.176zm-23.345-1.1273-4.4509-6.7164c3.4018-2.54 6.1796-5.8873 8.1127-9.6132l7.4182 2.9673c-2.54 5.0437-6.4718 9.7886-11.08 13.362z" fill="#fff"/>
</svg> 