<?xml version="1.0" encoding="UTF-8"?>
<svg width="512" height="512" version="1.1" viewBox="0 0 512 512" xmlns="http://www.w3.org/2000/svg">
    <path fill="currentColor" d="M416 320h-96c-17.6 0-32 14.4-32 32v32c0 17.6 14.4 32 32 32h96c17.6 0 32-14.4 32-32v-32c0-17.6-14.4-32-32-32zm0 64h-96v-32h96v32zm-304-64h-96c-17.6 0-32 14.4-32 32v32c0 17.6 14.4 32 32 32h96c17.6 0 32-14.4 32-32v-32c0-17.6-14.4-32-32-32zm0 64h-96v-32h96v32zm304-192h-96c-17.6 0-32 14.4-32 32v32c0 17.6 14.4 32 32 32h96c17.6 0 32-14.4 32-32v-32c0-17.6-14.4-32-32-32zm0 64h-96v-32h96v32zm-304-64h-96c-17.6 0-32 14.4-32 32v32c0 17.6 14.4 32 32 32h96c17.6 0 32-14.4 32-32v-32c0-17.6-14.4-32-32-32zm0 64h-96v-32h96v32z"/>
</svg> 